<?xml version="1.0" standalone="no"?>
<!DOCTYPE svg PUBLIC "-//W3C//DTD SVG 20010904//EN"
 "http://www.w3.org/TR/2001/REC-SVG-20010904/DTD/svg10.dtd">
<svg version="1.0" xmlns="http://www.w3.org/2000/svg"
 width="211.000000pt" height="43.000000pt" viewBox="0 0 211.000000 43.000000"
 preserveAspectRatio="xMidYMid meet">

<g transform="translate(0.000000,43.000000) scale(0.100000,-0.100000)"
fill="#ffffff" stroke="none">
<path d="M1876 399 c8 -17 38 -70 66 -117 39 -65 53 -81 59 -69 12 21 -99 217
-124 217 -16 0 -17 -2 -1 -31z"/>
<path d="M1975 364 c47 -85 60 -101 68 -81 8 21 -64 141 -87 145 -16 3 -13 -7
19 -64z"/>
<path d="M2022 418 c3 -7 15 -14 27 -16 16 -3 20 -8 16 -23 -10 -31 6 -45 21
-18 17 31 17 35 -2 53 -19 19 -68 22 -62 4z"/>
<path d="M757 263 c-4 -3 -7 -27 -7 -52 0 -35 -3 -42 -12 -33 -13 13 -66 16
-93 6 -8 -4 -23 -20 -31 -36 -41 -79 40 -168 116 -128 13 7 21 7 25 0 3 -5 13
-10 21 -10 11 0 14 23 14 130 0 102 -3 130 -13 130 -8 0 -17 -3 -20 -7z m-19
-131 c16 -21 15 -47 -4 -66 -40 -40 -105 4 -85 57 15 38 61 43 89 9z"/>
<path d="M1624 255 c-7 -18 3 -35 21 -35 21 0 28 19 15 35 -16 19 -29 19 -36
0z"/>
<path d="M260 186 c-97 -31 -67 -176 37 -176 45 0 84 22 63 35 -7 4 -34 9 -59
9 -35 1 -46 5 -49 19 -3 15 5 17 62 17 66 0 66 0 66 28 0 57 -56 89 -120 68z
m68 -38 c21 -21 13 -28 -33 -28 -46 0 -54 7 -33 28 15 15 51 15 66 0z"/>
<path d="M883 193 c-34 -6 -63 -50 -63 -95 0 -72 71 -110 144 -76 39 17 16 37
-34 31 -38 -5 -70 8 -70 28 0 5 32 9 70 9 68 0 70 1 70 24 0 50 -59 89 -117
79z m63 -47 c27 -20 14 -28 -42 -24 -46 3 -47 4 -30 21 21 21 46 22 72 3z"/>
<path d="M10 182 c0 -5 15 -44 34 -88 31 -70 38 -79 61 -79 23 0 30 9 61 79
40 93 40 96 13 96 -14 0 -24 -11 -35 -37 -8 -21 -20 -51 -28 -67 l-12 -30 -26
65 c-19 47 -31 65 -47 67 -11 2 -21 -1 -21 -6z"/>
<path d="M410 100 c0 -83 1 -90 20 -90 18 0 20 7 20 58 0 62 11 82 45 82 34 0
45 -20 45 -82 0 -51 2 -58 20 -58 18 0 20 7 20 64 0 79 -24 116 -74 116 -17 0
-38 -6 -45 -12 -11 -10 -14 -10 -18 0 -3 6 -11 12 -19 12 -11 0 -14 -19 -14
-90z"/>
<path d="M1020 100 c0 -83 1 -90 20 -90 17 0 20 7 20 51 0 62 13 89 44 89 29
0 36 -16 36 -86 0 -47 2 -54 20 -54 17 0 20 7 20 51 0 62 13 89 44 89 29 0 36
-16 36 -86 0 -47 2 -54 20 -54 18 0 20 7 20 70 0 57 -4 74 -20 90 -24 24 -82
27 -100 5 -11 -13 -14 -13 -27 0 -17 18 -64 20 -81 3 -9 -9 -12 -9 -12 0 0 7
-9 12 -20 12 -19 0 -20 -7 -20 -90z"/>
<path d="M1320 100 c0 -83 1 -90 20 -90 17 0 20 7 20 51 0 62 13 89 44 89 29
0 36 -16 36 -86 0 -47 2 -54 20 -54 17 0 20 7 20 51 0 62 13 89 44 89 29 0 36
-16 36 -86 0 -47 2 -54 20 -54 18 0 20 7 20 70 0 57 -4 74 -20 90 -24 24 -82
27 -100 5 -11 -13 -14 -13 -27 0 -17 18 -64 20 -81 3 -9 -9 -12 -9 -12 0 0 7
-9 12 -20 12 -19 0 -20 -7 -20 -90z"/>
<path d="M1620 100 c0 -83 1 -90 20 -90 19 0 20 7 20 90 0 83 -1 90 -20 90
-19 0 -20 -7 -20 -90z"/>
<path d="M1712 167 c-32 -34 -30 -100 3 -132 27 -28 82 -34 104 -12 11 9 14 9
18 0 3 -7 13 -13 24 -13 17 0 19 8 19 90 0 83 -1 90 -20 90 -11 0 -20 -5 -20
-10 0 -7 -6 -7 -19 0 -35 18 -86 12 -109 -13z m93 -13 c27 -11 38 -53 20 -80
-17 -26 -62 -33 -83 -12 -20 20 -14 65 10 82 25 18 29 19 53 10z"/>
</g>
</svg>
